<svg xmlns="http://www.w3.org/2000/svg" viewBox="0 0 800 450"><defs><linearGradient id="b" x2="1" y2="1"><stop stop-color="#031522"/><stop offset="1" stop-color="#083b42"/></linearGradient></defs><rect width="800" height="450" fill="url(#b)"/><path d="M348 74c40 6 68 30 91 44 28 17 68 13 94 32 23 16 29 45 51 63-10 31-42 43-48 76-5 27 11 55-11 77-28 28-70 2-101 17-26 13-42 37-74 35-39-2-53-35-82-51-26-14-65-6-83-32-17-25 5-52-2-78-8-31-40-48-36-81 5-39 44-50 69-72 35-31 74-38 132-30z" fill="#0b4a42" stroke="#21e88b" stroke-width="6"/><g fill="#28d9ff"><circle cx="290" cy="170" r="9"/><circle cx="410" cy="145" r="9"/><circle cx="485" cy="240" r="9"/><circle cx="360" cy="305" r="9"/></g><g stroke="#28d9ff" stroke-width="3" opacity=".7"><path d="M290 170l120-25 75 95-125 65-70-135z"/></g><rect x="95" y="105" width="150" height="210" rx="16" fill="#061e2a" stroke="#d9f5ff" stroke-width="4"/><path d="M125 150h90M125 190h90M125 230h65M125 270h80" stroke="#21e88b" stroke-width="8" stroke-linecap="round"/><circle cx="645" cy="225" r="72" fill="#061e2a" stroke="#ff9b45" stroke-width="5"/><path d="M610 225l24 24 48-58" fill="none" stroke="#21e88b" stroke-width="10" stroke-linecap="round" stroke-linejoin="round"/></svg>